# xmcd
# 
# Track frame offsets:
#	182
#	14322
#	28365
#	40822
#	53092
#	68487
#	82837
#	98837
#	111957
#	128092
#	141957
#	158220
#
# Disc length: 2278 seconds
#
# Revision: 1
# Processed by: cddbd v1.4PL0 Copyright (c) Steve Scherf et al.
# Submitted via: Audio-CD-Archiv 2.10.435
#
DISCID=9708e40c
DTITLE=Marry Duff - Love some like me
DYEAR=1900
DGENRE=country
TTITLE0=Love some like me
TTITLE1=She's got you
TTITLE2=Are you teasing me
TTITLE3=Crazy
TTITLE4=FOrever and ever amen
TTITLE5=It's not over (if I'm not over you)
TTITLE6=Daddy's Hand
TTITLE7=Pick me up (on your way down)
TTITLE8=Dear god
TTITLE9=Chicken every sunday
TTITLE10=There won't be any patches in heaven
TTITLE11=Do me with love
EXTD=
EXTT0=
EXTT1=
EXTT2=
EXTT3=
EXTT4=
EXTT5=
EXTT6=
EXTT7=
EXTT8=
EXTT9=
EXTT10=
EXTT11=
PLAYORDER=
